<svg xmlns="http://www.w3.org/2000/svg" width="512" height="512" viewBox="0 0 512 512" role="img" aria-labelledby="title description">
  <title id="title">Proconect Orange Intervenții</title>
  <desc id="description">Pictograma aplicației Proconect Orange Intervenții</desc>
  <defs>
    <linearGradient id="background" x1="64" y1="32" x2="448" y2="480" gradientUnits="userSpaceOnUse">
      <stop stop-color="#6475AA"/>
      <stop offset="1" stop-color="#27386E"/>
    </linearGradient>
    <linearGradient id="fiber" x1="94" y1="118" x2="290" y2="318" gradientUnits="userSpaceOnUse">
      <stop stop-color="#FFFFFF"/>
      <stop offset="1" stop-color="#BFC9E5"/>
    </linearGradient>
  </defs>
  <rect width="512" height="512" rx="112" fill="url(#background)"/>
  <circle cx="196" cy="210" r="102" fill="#FFFFFF" fill-opacity="0.08"/>
  <path d="M108 150c46-46 118-58 176-27-70 1-123 29-162 80-9-15-14-33-14-53Z" fill="url(#fiber)"/>
  <path d="M111 215c42-54 101-83 176-84 8 12 13 25 17 39-72 4-130 35-174 91-10-14-16-29-19-46Z" fill="url(#fiber)" fill-opacity="0.92"/>
  <path d="M132 272c43-55 100-87 172-94 1 17-1 34-7 50-58 10-104 39-140 86-11-12-20-26-25-42Z" fill="url(#fiber)" fill-opacity="0.82"/>
  <path d="M165 319c31-39 70-66 118-80-23 47-66 79-117 86l-1-6Z" fill="url(#fiber)" fill-opacity="0.72"/>
  <text x="328" y="210" fill="#FFFFFF" font-family="Arial, Helvetica, sans-serif" font-size="56" font-weight="700" text-anchor="middle">PRO</text>
  <text x="345" y="262" fill="#D9E2FA" font-family="Arial, Helvetica, sans-serif" font-size="50" font-weight="400" text-anchor="middle">conect</text>
  <text x="256" y="411" fill="#FFFFFF" font-family="Arial, Helvetica, sans-serif" font-size="38" font-weight="700" letter-spacing="12" text-anchor="middle">B2B</text>
</svg>
